<?xml version="1.0" encoding="utf-8"?>
<!-- Generator: Adobe Illustrator 17.0.0, SVG Export Plug-In . SVG Version: 6.00 Build 0)  -->
<!DOCTYPE svg PUBLIC "-//W3C//DTD SVG 1.1//EN" "http://www.w3.org/Graphics/SVG/1.1/DTD/svg11.dtd">
<svg version="1.1" xmlns="http://www.w3.org/2000/svg" xmlns:xlink="http://www.w3.org/1999/xlink" x="0px" y="0px" width="1354px"
	 height="500px" viewBox="0 0 1354 500" enable-background="new 0 0 1354 500" xml:space="preserve">
<g id="Layer_2">
	<linearGradient id="SVGID_1_" gradientUnits="userSpaceOnUse" x1="667.1447" y1="624.7025" x2="664.283" y2="-150.8354">
		<stop  offset="0" style="stop-color:#FFFFFF"/>
		<stop  offset="1" style="stop-color:#0081C6"/>
	</linearGradient>
	<path opacity="0.5" fill="url(#SVGID_1_)" d="M-110,205c0,0,180,356,630,274s816-206,834-20s110-284,120-332s-372-388-706-388
		s-616-68-684-56s-204,4-224,76S-110,205-110,205z"/>
</g>
<g id="Layer_1">
	<linearGradient id="SVGID_2_" gradientUnits="userSpaceOnUse" x1="651.4786" y1="549.7436" x2="649.4786" y2="7.7436">
		<stop  offset="0" style="stop-color:#FFFFFF"/>
		<stop  offset="1" style="stop-color:#0081C6"/>
	</linearGradient>
	<path fill="url(#SVGID_2_)" d="M-41.571,195.714c0,0,92.857,358.571,558.571,251.429S1297,310,1351.286,382.857
		C1405.571,455.714,1360.143-60,1340-65.714s-243-32.857-297.286-32.857c-54.286,0-88.571-12.857-227.143-12.857
		S-83-67.143-77.286-77.143S-41.571,195.714-41.571,195.714z"/>
</g>
</svg>
